<svg width="24" height="24" fill="none" xmlns="http://www.w3.org/2000/svg"><path d="M11.045 8.327a2.743 2.743 0 1 1-5.485 0 2.743 2.743 0 0 1 5.485 0ZM18.448 8.327a2.742 2.742 0 1 1-5.485 0 2.742 2.742 0 0 1 5.485 0ZM11.045 15.672a2.743 2.743 0 1 1-5.485 0 2.743 2.743 0 0 1 5.485 0ZM18.448 15.672a2.742 2.742 0 1 1-5.485 0 2.742 2.742 0 0 1 5.485 0Z" fill="#64656D"/><path fill-rule="evenodd" clip-rule="evenodd" d="M23.185 12C23.185 5.834 18.17.818 12.004.818 5.838.818.822 5.834.822 12c0 6.063 4.85 11.014 10.874 11.178l.308.004c6.166 0 11.181-5.016 11.181-11.182ZM1.818 12c0-5.516 4.41-10.021 9.891-10.178l.295-.004c5.616 0 10.185 4.568 10.185 10.182 0 5.614-4.57 10.182-10.185 10.182-5.616 0-10.186-4.568-10.186-10.182Z" fill="#64656D"/></svg>