<svg width="293" height="80" fill="none" xmlns="http://www.w3.org/2000/svg"><g clip-path="url('#clip0_2_352')"><path d="M112.092 43.634c.65.908 1.412 1.362 2.285 1.362.58 0 1.049-.164 1.406-.492.358-.328.536-.765.536-1.31 0-.533-.175-.975-.527-1.327-.346-.351-1.066-.527-2.162-.527h-.527v-2.197h.527c.65 0 1.142-.15 1.476-.449.34-.299.51-.7.51-1.204 0-.463-.14-.829-.422-1.098-.281-.27-.653-.405-1.116-.405-.551 0-1.116.273-1.696.818l-1.45-1.617c.779-.704 1.429-1.123 1.951-1.257a5.561 5.561 0 0 1 1.441-.211c1.055 0 1.94.307 2.655.923.72.615 1.081 1.444 1.081 2.487 0 .463-.082.914-.247 1.353-.158.44-.606.906-1.344 1.398 1.511.674 2.267 1.825 2.267 3.454 0 1.201-.404 2.168-1.213 2.9-.802.727-1.836 1.09-3.102 1.09-.797 0-1.512-.143-2.145-.43-.632-.293-1.321-.92-2.065-1.881l1.881-1.38Zm15.803-6.197h2.39V47h-2.39v-1.01c-.469.445-.941.767-1.416.966-.468.193-.978.29-1.529.29-1.236 0-2.305-.477-3.208-1.433-.902-.96-1.353-2.153-1.353-3.577 0-1.476.436-2.686 1.309-3.63.873-.943 1.934-1.415 3.182-1.415.574 0 1.113.109 1.617.326.504.216.97.542 1.398.975v-1.054Zm-2.523 1.97c-.744 0-1.362.263-1.854.79-.493.522-.739 1.193-.739 2.013 0 .826.249 1.506.747 2.039.504.533 1.122.8 1.855.8.756 0 1.383-.26 1.881-.782.498-.528.747-1.216.747-2.066 0-.832-.249-1.506-.747-2.021-.498-.516-1.128-.774-1.89-.774ZM132.711 47v-9.563h3.841c1.26 0 2.115.25 2.566.748.451.492.677 1.051.677 1.678 0 .932-.463 1.603-1.389 2.013 1.266.434 1.899 1.251 1.899 2.452 0 .65-.167 1.19-.501 1.617a2.39 2.39 0 0 1-1.275.844c-.509.14-1.224.211-2.144.211h-3.674Zm2.408-5.8h.923c.393 0 .694-.098.905-.29.217-.2.325-.42.325-.66 0-.357-.102-.636-.307-.835a1.011 1.011 0 0 0-.73-.299l-.307.009h-.809v2.074Zm0 3.954h1.204c.469 0 .797-.108.985-.325.193-.223.29-.44.29-.65 0-.31-.109-.595-.326-.853-.21-.258-.594-.386-1.151-.386h-1.002v2.214Zm14.291-7.717h2.391V47h-2.391v-1.01c-.469.445-.94.767-1.415.966-.469.193-.978.29-1.529.29-1.237 0-2.306-.477-3.208-1.433-.903-.96-1.354-2.153-1.354-3.577 0-1.476.437-2.686 1.31-3.63.873-.943 1.933-1.415 3.182-1.415.574 0 1.113.109 1.617.326.504.216.969.542 1.397.975v-1.054Zm-2.522 1.97c-.744 0-1.363.263-1.855.79-.492.522-.738 1.193-.738 2.013 0 .826.249 1.506.747 2.039.504.533 1.122.8 1.854.8.756 0 1.383-.26 1.881-.782.498-.528.747-1.216.747-2.066 0-.832-.249-1.506-.747-2.021-.498-.516-1.128-.774-1.889-.774Zm9.738 1.476h3.568v-3.446h2.409V47h-2.409v-3.964h-3.568V47h-2.408v-9.563h2.408v3.446Zm7.559-3.446h8.912v2.286h-3.173V47h-2.408v-7.277h-3.331v-2.285Zm17.551 0h2.391V47h-2.391v-1.01c-.468.445-.94.767-1.415.966-.468.193-.978.29-1.529.29-1.236 0-2.306-.477-3.208-1.433-.902-.96-1.354-2.153-1.354-3.577 0-1.476.437-2.686 1.31-3.63.873-.943 1.934-1.415 3.182-1.415.574 0 1.113.109 1.617.326.504.216.97.542 1.397.975v-1.054Zm-2.522 1.97c-.744 0-1.362.263-1.855.79-.492.522-.738 1.193-.738 2.013 0 .826.249 1.506.747 2.039.504.533 1.122.8 1.855.8.756 0 1.382-.26 1.881-.782.498-.528.747-1.216.747-2.066 0-.832-.249-1.506-.747-2.021-.499-.516-1.128-.774-1.89-.774Zm12.182 4.517-.255-.299L188.293 47h-3.182l4.316-4.904-4.263-4.658h2.927l3.305 3.577v-3.578h2.399v3.578l3.296-3.578h2.935l-4.262 4.659L200.079 47h-3.182l-2.847-3.375-.255.299V47h-2.399v-3.076ZM202.338 47h-1.275v-9.563h2.338v5.617l4.896-5.617h1.151V47h-2.338v-5.502L202.338 47Zm8.692-9.563h8.912v2.286h-3.172V47h-2.409v-7.277h-3.331v-2.285ZM222.781 47h-1.274v-9.563h2.338v5.617l4.895-5.617h1.152V47h-2.338v-5.502L222.781 47Zm14.845-12.929h2.61c1.412 0 2.429.132 3.05.396.627.258 1.119.68 1.477 1.265.363.58.545 1.278.545 2.092 0 .903-.238 1.653-.712 2.25-.469.598-1.108 1.014-1.916 1.248-.475.135-1.339.202-2.593.202V47h-2.461V34.071Zm2.461 5.054h.782c.615 0 1.043-.044 1.283-.132.241-.088.428-.231.563-.43.14-.206.211-.452.211-.739 0-.498-.194-.861-.58-1.09-.282-.17-.803-.255-1.565-.255h-.694v2.646Zm7.646-5.054h2.918c1.881 0 3.279.235 4.193.703.914.463 1.667 1.22 2.259 2.268.591 1.049.887 2.273.887 3.674 0 .996-.167 1.913-.501 2.75-.328.833-.785 1.524-1.371 2.075-.58.55-1.21.932-1.889 1.143-.68.21-1.858.316-3.534.316h-2.962V34.071Zm2.453 2.373v8.148h1.142c1.125 0 1.94-.13 2.443-.387.51-.258.926-.691 1.249-1.3.322-.61.483-1.36.483-2.25 0-1.372-.384-2.435-1.151-3.191-.692-.68-1.802-1.02-3.331-1.02h-.835Zm10.177-2.373h6.416v2.4h-3.981v2.346h3.981v2.365h-3.981V47h-2.435V34.071Z" fill="#fff"/><path fill-rule="evenodd" clip-rule="evenodd" d="M40 80c22.091 0 40-17.909 40-40S62.091 0 40 0 0 17.909 0 40s17.909 40 40 40Z" fill="#fff"/><path d="M24.761 44.777a2.601 2.601 0 0 1 0-3.677 2.57 2.57 0 0 1 1.832-.764 2.57 2.57 0 0 1 1.831.764l8.991 9.026V22.603A2.599 2.599 0 0 1 40.008 20a2.599 2.599 0 0 1 2.593 2.603v27.523l8.975-9.026a2.577 2.577 0 0 1 3.663 0 2.601 2.601 0 0 1 0 3.677L41.832 58.236A2.588 2.588 0 0 1 40 59c-.69 0-1.348-.27-1.831-.764L24.76 44.776Z" fill="#000"/></g><defs><clipPath id="clip0_2_352"><path fill="#fff" d="M0 0h293v80H0z"/></clipPath></defs></svg>