<svg width="138" height="70" fill="none" xmlns="http://www.w3.org/2000/svg"><path d="m13.524 46.467 2.66 4.888h-5.32l2.66-4.888ZM19.41 46.467l2.652 4.888h-5.311l2.66-4.888ZM22.357 51.355l-2.652-4.888h5.319l-2.667 4.888ZM16.479 51.355l-2.66-4.888h5.32l-2.66 4.888ZM16.252 41.344l2.652 4.888h-5.312l2.66-4.888ZM22.138 41.344l2.652 4.888h-5.312l2.66-4.888ZM25.084 46.232l-2.652-4.888h5.312l-2.66 4.888ZM19.199 46.232l-2.652-4.888h5.319l-2.667 4.888ZM19.085 36.199l2.652 4.888h-5.319l2.667-4.888ZM24.971 36.199l2.652 4.888h-5.319l2.667-4.888ZM27.918 41.087 25.266 36.2h5.311l-2.66 4.888ZM22.032 41.087 19.38 36.2h5.312l-2.66 4.888ZM21.828 31.068l2.652 4.889h-5.32l2.668-4.889ZM27.706 31.068l2.652 4.889h-5.311l2.66-4.889ZM30.66 35.957 28 31.068h5.32l-2.66 4.889ZM24.775 35.957l-2.652-4.889h5.311l-2.66 4.889ZM24.654 25.923l2.652 4.889h-5.312l2.66-4.889ZM30.54 25.923l2.652 4.889H27.88l2.66-4.889ZM33.486 30.811l-2.652-4.888h5.312l-2.66 4.889ZM27.6 30.811l-2.652-4.888h5.32L27.6 30.812ZM27.45 20.71l2.651 4.88H24.79l2.66-4.88ZM33.335 20.71l2.652 4.88h-5.312l2.66-4.88ZM36.282 25.59l-2.652-4.88h5.319l-2.667 4.88ZM30.396 25.59l-2.652-4.88h5.32l-2.668 4.88ZM30.283 15.565l2.652 4.888h-5.312l2.66-4.888ZM36.169 15.565l2.652 4.888H33.5l2.668-4.888ZM39.115 20.445l-2.652-4.88h5.312l-2.66 4.88ZM33.23 20.445l-2.653-4.88h5.312l-2.66 4.88ZM33.116 10.328l2.652 4.889h-5.32l2.668-4.889ZM38.994 10.328l2.66 4.889h-5.32l2.66-4.889ZM41.94 15.217l-2.651-4.889h5.319l-2.667 4.889ZM36.063 15.217l-2.66-4.889h5.32l-2.66 4.889ZM35.942 5.183l2.652 4.889h-5.312l2.66-4.889ZM41.828 5.183l2.651 4.889h-5.311l2.66-4.889ZM44.774 10.072l-2.652-4.889h5.32l-2.668 4.889ZM38.889 10.072l-2.653-4.889h5.32l-2.667 4.889ZM38.722 0l2.652 4.888h-5.311L38.723 0ZM44.608 0l2.652 4.888h-5.32L44.609 0ZM47.555 4.888 44.903 0h5.311l-2.66 4.888ZM41.669 4.888 39.017 0h5.311l-2.66 4.888ZM30.071 5.183l2.652 4.889h-5.319l2.667-4.889ZM33.018 10.072l-2.652-4.889h5.311l-2.66 4.889ZM32.844 0l2.652 4.888h-5.312L32.844 0ZM35.79 4.888 33.14 0h5.319L35.79 4.888ZM24.178 5.183l2.652 4.889h-5.32l2.668-4.889ZM27.125 10.072l-2.652-4.889h5.311l-2.66 4.889ZM26.95 0l2.653 4.888H24.29L26.951 0ZM29.897 4.888 27.245 0h5.32l-2.668 4.888ZM18.3 5.183l2.652 4.889H15.64l2.66-4.889ZM21.246 10.072l-2.652-4.889h5.312l-2.66 4.889ZM21.08 0l2.652 4.888h-5.32L21.08 0ZM24.027 4.888 21.375 0h5.311l-2.66 4.888ZM12.421 5.183l2.652 4.889H9.762l2.66-4.889ZM15.368 10.072l-2.652-4.889h5.32l-2.668 4.889ZM15.202 0l2.652 4.888h-5.32L15.203 0ZM18.148 4.888 15.496 0h5.312l-2.66 4.888ZM9.475 10.072 6.823 5.183h5.319l-2.667 4.889ZM9.308 0l2.652 4.888H6.641L9.308 0ZM12.255 4.888 9.603 0h5.312l-2.66 4.888ZM6.4 4.888 3.74 0h5.32L6.4 4.888ZM33.509 47.154l2.04-1.224c1.435 2.645 3.098 3.967 4.979 3.967.809 0 1.564-.189 2.267-.56.71-.377 1.246-.883 1.617-1.51.37-.635.551-1.3.551-2.01 0-.808-.272-1.594-.816-2.365-.748-1.065-2.123-2.35-4.11-3.853-2.002-1.511-3.249-2.607-3.74-3.28-.846-1.133-1.27-2.357-1.27-3.671 0-1.043.25-1.995.749-2.864.498-.861 1.208-1.534 2.115-2.032.907-.499 1.897-.74 2.962-.74a6.31 6.31 0 0 1 3.173.838c.982.559 2.025 1.594 3.128 3.09l-1.957 1.489c-.906-1.194-1.67-1.988-2.312-2.365a3.932 3.932 0 0 0-2.077-.575c-.968 0-1.76.295-2.38.884-.612.59-.915 1.315-.915 2.169 0 .521.106 1.027.325 1.519.212.49.612 1.027 1.194 1.601.31.303 1.345 1.104 3.098 2.403 2.078 1.534 3.506 2.901 4.276 4.095s1.164 2.395 1.164 3.604c0 1.738-.665 3.257-1.987 4.533-1.322 1.285-2.932 1.927-4.82 1.927-1.459 0-2.781-.393-3.967-1.171-1.194-.763-2.29-2.07-3.287-3.899ZM52.655 27.616h13.758v2.35H55.057v7.525h11.258v2.35H55.057v9.436h11.258v2.35h-13.66V27.615ZM68.733 27.616h2.614l7.956 18.548 8.085-18.549h2.614l-10.45 24.012h-.52l-10.3-24.012ZM94.052 27.616h13.758v2.35H96.447v7.525h11.265v2.35H96.447v9.436h11.265v2.35h-13.66V27.615ZM111.973 51.627V27.615h.522l15.98 18.406V27.616h2.372v24.011h-.544l-15.851-18.186v18.186h-2.479ZM0 55.73h137.594v1.383H0z" fill="#fff"/><path fill-rule="evenodd" clip-rule="evenodd" d="M27.869 67.82c.314-.133.647-.35.98-.654a2.4 2.4 0 0 0 .189.71H30a2.39 2.39 0 0 1-.225-.691c-.036-.237-.063-.815-.063-1.716v-1.298c0-.427-.018-.73-.045-.891a1.526 1.526 0 0 0-.297-.664c-.134-.18-.35-.322-.638-.436-.288-.114-.665-.18-1.124-.18-.468 0-.89.076-1.241.209-.36.132-.63.322-.818.568a2.345 2.345 0 0 0-.405.995l.9.133c.107-.417.251-.692.467-.853.207-.161.521-.246.953-.246.468 0 .81.123 1.052.34.18.162.27.437.27.826 0 .038 0 .123-.009.256-.35.123-.9.246-1.646.34a4.394 4.394 0 0 0-.818.143c-.252.076-.468.19-.665.322a1.63 1.63 0 0 0-.468.56c-.117.227-.18.483-.18.767 0 .474.162.872.477 1.175.323.323.782.465 1.375.465.36 0 .702-.066 1.017-.18Zm-.594-2.455c.657-.104 1.17-.228 1.502-.37h.009v.37c0 .436-.045.758-.144.967a1.49 1.49 0 0 1-.611.673 1.864 1.864 0 0 1-.954.246c-.36 0-.63-.085-.818-.256a.846.846 0 0 1-.279-.644c0-.17.045-.332.135-.465a.816.816 0 0 1 .36-.322c.153-.076.413-.133.8-.2ZM36 62.122V70h.98v-2.77a2 2 0 0 0 .627.516 1.9 1.9 0 0 0 .874.198c.447 0 .865-.132 1.274-.376.408-.244.713-.6.922-1.07.209-.46.323-.977.323-1.568a4.02 4.02 0 0 0-.285-1.493c-.2-.451-.495-.798-.856-1.052A2.313 2.313 0 0 0 38.547 62c-.37 0-.684.066-.95.216-.257.14-.494.357-.703.648v-.742H36Zm1.35 4.498c-.314-.348-.456-.883-.456-1.615 0-.733.161-1.296.484-1.69.324-.367.694-.564 1.103-.564.409 0 .77.179 1.074.535.314.367.456.911.456 1.634 0 .76-.152 1.315-.456 1.69-.314.357-.684.535-1.121.535-.419 0-.79-.178-1.084-.525Z" fill="#fff"/><path d="M45 62h5v.852h-1.978V68h-1.034v-5.148H45V62ZM56.682 65.043h2.372v.778h-2.372zM70.042 65.76l.958.123c-.104.655-.36 1.177-.806 1.557-.427.37-.95.56-1.585.56-.787 0-1.414-.256-1.888-.769-.484-.522-.721-1.253-.721-2.212 0-.617.104-1.168.313-1.623.2-.466.522-.817.94-1.045A2.769 2.769 0 0 1 68.627 62c.626 0 1.12.161 1.528.475.389.313.645.76.75 1.338l-.94.152c-.095-.39-.256-.674-.484-.873a1.254 1.254 0 0 0-.826-.294c-.493 0-.882.17-1.195.522-.313.35-.465.911-.465 1.67 0 .77.142 1.33.446 1.68.294.352.674.523 1.158.523.389 0 .702-.104.958-.351.247-.238.408-.598.484-1.082ZM76 62h5v.852h-1.976V68h-1.048v-5.148H76V62ZM85.487 69.878l-.1-.901c.199.056.379.093.523.093.198 0 .36-.046.495-.112a.863.863 0 0 0 .307-.3c.063-.095.144-.339.279-.714.018-.057.045-.132.072-.245L85 62.01h1l1.144 3.296c.144.423.27.845.387 1.315.1-.442.235-.883.379-1.305L89.08 62H90l-2.072 5.784c-.216.62-.397 1.061-.523 1.286-.162.32-.35.554-.567.705-.207.14-.469.225-.757.225-.18 0-.37-.047-.594-.122Z" fill="#fff"/><path fill-rule="evenodd" clip-rule="evenodd" d="M99.378 62h-3.91c.027 2.574-.288 4.365-.976 5.364H94V70h.78v-1.76h4.421V70H100v-2.636h-.622V62Zm-3.966 5.374c.492-.967.77-2.47.854-4.488h2.164v4.488h-3.018ZM117 67.99V62h-2.631c-.653 0-1.156.168-1.501.484-.346.326-.514.742-.514 1.266 0 .444.131.83.402 1.166.261.346.671.553 1.212.633-.317.069-.625.346-.942.83L112 68h1.185l.839-1.315c.317-.494.56-.8.719-.89.167-.088.41-.138.755-.138h.551v2.333H117Zm-2.323-5.14h1.362v1.977h-1.063c-.616 0-1.036-.089-1.288-.247-.251-.178-.363-.445-.363-.79 0-.258.084-.465.251-.663.168-.178.532-.277 1.101-.277ZM107 61.139h-1V60h1v1.139ZM107 68h-1v-5.799h1V68Z" fill="#fff"/></svg>