<svg width="60" height="60" fill="none" xmlns="http://www.w3.org/2000/svg"><path fill-rule="evenodd" clip-rule="evenodd" d="M34.665.578a.773.773 0 0 1 .704-.22A30.062 30.062 0 0 1 46.23 4.85a.772.772 0 0 1 .157 1.144 4.949 4.949 0 0 0-1.192 3.235v.001a4.936 4.936 0 0 0 4.957 4.928 4.945 4.945 0 0 0 3.215-1.204.771.771 0 0 1 1.145.154 30.067 30.067 0 0 1 4.522 10.898.772.772 0 0 1-.813.92 4.904 4.904 0 0 0-.29-.013 4.935 4.935 0 0 0-4.918 4.966 4.934 4.934 0 0 0 4.955 4.927h.002c.082 0 .163-.003.244-.008a.772.772 0 0 1 .805.921 30.065 30.065 0 0 1-4.428 10.73.772.772 0 0 1-1.157.149 4.95 4.95 0 0 0-3.32-1.264 4.936 4.936 0 0 0-4.92 4.965 4.947 4.947 0 0 0 1.283 3.295.772.772 0 0 1-.14 1.157 30.065 30.065 0 0 1-10.973 4.565.772.772 0 0 1-.919-.812c.005-.056.007-.113.009-.17v-.008a4.936 4.936 0 0 0-4.974-4.91 4.935 4.935 0 0 0-4.92 4.963l.005.113a.772.772 0 0 1-.922.797 30.06 30.06 0 0 1-10.709-4.428.772.772 0 0 1-.132-1.175 4.946 4.946 0 0 0 1.366-3.404v-.037a4.935 4.935 0 0 0-4.973-4.91 4.947 4.947 0 0 0-3.404 1.383.772.772 0 0 1-1.175-.125A30.065 30.065 0 0 1 .085 35.717a.772.772 0 0 1 .811-.921c.06.004.121.008.182.01a4.934 4.934 0 0 0 4.937-4.946v-.038a4.934 4.934 0 0 0-4.973-4.91 5.122 5.122 0 0 0-.157.007A.772.772 0 0 1 .08 24a30.063 30.063 0 0 1 4.567-10.942.772.772 0 0 1 1.151-.146 4.946 4.946 0 0 0 3.284 1.245A4.936 4.936 0 0 0 14.02 9.21v-.036a4.946 4.946 0 0 0-1.227-3.215.771.771 0 0 1 .153-1.15A30.064 30.064 0 0 1 23.646.368a.772.772 0 0 1 .922.803c-.003.048-.004.097-.005.145v.025a4.935 4.935 0 0 0 4.953 4.925 4.936 4.936 0 0 0 4.939-4.948v-.017a5.021 5.021 0 0 0-.006-.14.772.772 0 0 1 .216-.584Zm10.078 5.217a28.456 28.456 0 0 0-8.904-3.69c-.405 3.185-3.026 5.698-6.319 5.705-3.295.005-5.93-2.503-6.342-5.692A28.45 28.45 0 0 0 14.44 5.75c.661 1.026 1.11 2.176 1.122 3.409V9.209c0 3.57-2.908 6.484-6.478 6.49-1.268.001-2.45-.459-3.5-1.144a28.442 28.442 0 0 0-3.754 8.97c3.182.393 5.704 2.997 5.728 6.285V29.86c0 3.303-2.523 5.937-5.722 6.334a28.448 28.448 0 0 0 3.706 8.879c1.078-.76 2.31-1.276 3.644-1.283 3.57-.02 6.499 2.873 6.526 6.443V50.283c-.003 1.33-.51 2.565-1.263 3.644a28.44 28.44 0 0 0 8.736 3.617c.42-3.159 3.014-5.654 6.286-5.672 3.305-.018 5.956 2.494 6.368 5.694a28.447 28.447 0 0 0 8.993-3.748c-.7-1.05-1.173-2.235-1.18-3.51v-.002c-.014-3.572 2.884-6.497 6.456-6.516h.001c1.282-.004 2.479.464 3.538 1.161a28.457 28.457 0 0 0 3.619-8.744c-3.225-.363-5.783-3.003-5.796-6.323-.013-3.341 2.555-6.02 5.806-6.38a28.454 28.454 0 0 0-3.707-8.906c-1.029.655-2.18 1.097-3.413 1.102h-.001c-3.571.007-6.49-2.895-6.503-6.466v-.001c-.004-1.24.434-2.4 1.09-3.438Zm-15.257 11.28c-7.03.04-12.716 5.78-12.69 12.809.026 7.03 5.755 12.727 12.784 12.714 7.03-.013 12.739-5.732 12.739-12.762l-.001-.035v-.06c-.052-7.029-5.802-12.705-12.832-12.666Zm11.288 12.678a11.205 11.205 0 0 0-11.28-11.134A11.206 11.206 0 0 0 18.34 29.88a11.206 11.206 0 0 0 11.238 11.175 11.207 11.207 0 0 0 11.197-11.301Z" fill="#000"/></svg>