<svg width="293" height="80" viewBox="0 0 293 80" fill="none" xmlns="http://www.w3.org/2000/svg">
<g clip-path="url(#clip0_2_352)">
<path d="M112.092 43.6338C112.742 44.542 113.504 44.9961 114.377 44.9961C114.957 44.9961 115.426 44.832 115.783 44.5039C116.141 44.1758 116.319 43.7393 116.319 43.1943C116.319 42.6611 116.144 42.2188 115.792 41.8672C115.446 41.5156 114.726 41.3398 113.63 41.3398H113.103V39.1426H113.63C114.28 39.1426 114.772 38.9932 115.106 38.6943C115.446 38.3955 115.616 37.9941 115.616 37.4902C115.616 37.0273 115.476 36.6611 115.194 36.3916C114.913 36.1221 114.541 35.9873 114.078 35.9873C113.527 35.9873 112.962 36.2598 112.382 36.8047L110.932 35.1875C111.711 34.4844 112.361 34.0654 112.883 33.9307C113.404 33.79 113.885 33.7197 114.324 33.7197C115.379 33.7197 116.264 34.0273 116.979 34.6426C117.699 35.2578 118.06 36.0869 118.06 37.1299C118.06 37.5928 117.978 38.0439 117.813 38.4834C117.655 38.9229 117.207 39.3887 116.469 39.8809C117.98 40.5547 118.736 41.7061 118.736 43.335C118.736 44.5361 118.332 45.5029 117.523 46.2354C116.721 46.9619 115.687 47.3252 114.421 47.3252C113.624 47.3252 112.909 47.1816 112.276 46.8945C111.644 46.6016 110.955 45.9746 110.211 45.0137L112.092 43.6338ZM127.895 37.4375H130.285V47H127.895V45.9893C127.426 46.4346 126.954 46.7568 126.479 46.9561C126.011 47.1494 125.501 47.2461 124.95 47.2461C123.714 47.2461 122.645 46.7686 121.742 45.8135C120.84 44.8525 120.389 43.6602 120.389 42.2363C120.389 40.7598 120.825 39.5498 121.698 38.6064C122.571 37.6631 123.632 37.1914 124.88 37.1914C125.454 37.1914 125.993 37.2998 126.497 37.5166C127.001 37.7334 127.467 38.0586 127.895 38.4922V37.4375ZM125.372 39.4062C124.628 39.4062 124.01 39.6699 123.518 40.1973C123.025 40.7188 122.779 41.3896 122.779 42.21C122.779 43.0361 123.028 43.7158 123.526 44.249C124.03 44.7822 124.648 45.0488 125.381 45.0488C126.137 45.0488 126.764 44.7881 127.262 44.2666C127.76 43.7393 128.009 43.0508 128.009 42.2012C128.009 41.3691 127.76 40.6953 127.262 40.1797C126.764 39.6641 126.134 39.4062 125.372 39.4062ZM132.711 47V37.4375H136.552C137.812 37.4375 138.667 37.6865 139.118 38.1846C139.569 38.6768 139.795 39.2363 139.795 39.8633C139.795 40.7949 139.332 41.4658 138.406 41.876C139.672 42.3096 140.305 43.127 140.305 44.3281C140.305 44.9785 140.138 45.5176 139.804 45.9453C139.47 46.3672 139.045 46.6484 138.529 46.7891C138.02 46.9297 137.305 47 136.385 47H132.711ZM135.119 41.1992H136.042C136.435 41.1992 136.736 41.1025 136.947 40.9092C137.164 40.71 137.272 40.4902 137.272 40.25C137.272 39.8926 137.17 39.6143 136.965 39.415C136.76 39.2158 136.517 39.1162 136.235 39.1162L135.928 39.125H135.119V41.1992ZM135.119 45.1543H136.323C136.792 45.1543 137.12 45.0459 137.308 44.8291C137.501 44.6064 137.598 44.3896 137.598 44.1787C137.598 43.8682 137.489 43.584 137.272 43.3262C137.062 43.0684 136.678 42.9395 136.121 42.9395H135.119V45.1543ZM149.41 37.4375H151.801V47H149.41V45.9893C148.941 46.4346 148.47 46.7568 147.995 46.9561C147.526 47.1494 147.017 47.2461 146.466 47.2461C145.229 47.2461 144.16 46.7686 143.258 45.8135C142.355 44.8525 141.904 43.6602 141.904 42.2363C141.904 40.7598 142.341 39.5498 143.214 38.6064C144.087 37.6631 145.147 37.1914 146.396 37.1914C146.97 37.1914 147.509 37.2998 148.013 37.5166C148.517 37.7334 148.982 38.0586 149.41 38.4922V37.4375ZM146.888 39.4062C146.144 39.4062 145.525 39.6699 145.033 40.1973C144.541 40.7188 144.295 41.3896 144.295 42.21C144.295 43.0361 144.544 43.7158 145.042 44.249C145.546 44.7822 146.164 45.0488 146.896 45.0488C147.652 45.0488 148.279 44.7881 148.777 44.2666C149.275 43.7393 149.524 43.0508 149.524 42.2012C149.524 41.3691 149.275 40.6953 148.777 40.1797C148.279 39.6641 147.649 39.4062 146.888 39.4062ZM156.626 40.8828H160.194V37.4375H162.603V47H160.194V43.0361H156.626V47H154.218V37.4375H156.626V40.8828ZM164.185 37.4375H173.097V39.7227H169.924V47H167.516V39.7227H164.185V37.4375ZM181.736 37.4375H184.127V47H181.736V45.9893C181.268 46.4346 180.796 46.7568 180.321 46.9561C179.853 47.1494 179.343 47.2461 178.792 47.2461C177.556 47.2461 176.486 46.7686 175.584 45.8135C174.682 44.8525 174.23 43.6602 174.23 42.2363C174.23 40.7598 174.667 39.5498 175.54 38.6064C176.413 37.6631 177.474 37.1914 178.722 37.1914C179.296 37.1914 179.835 37.2998 180.339 37.5166C180.843 37.7334 181.309 38.0586 181.736 38.4922V37.4375ZM179.214 39.4062C178.47 39.4062 177.852 39.6699 177.359 40.1973C176.867 40.7188 176.621 41.3896 176.621 42.21C176.621 43.0361 176.87 43.7158 177.368 44.249C177.872 44.7822 178.49 45.0488 179.223 45.0488C179.979 45.0488 180.605 44.7881 181.104 44.2666C181.602 43.7393 181.851 43.0508 181.851 42.2012C181.851 41.3691 181.602 40.6953 181.104 40.1797C180.605 39.6641 179.976 39.4062 179.214 39.4062ZM191.396 43.9238L191.141 43.625L188.293 47H185.111L189.427 42.0957L185.164 37.4375H188.091L191.396 41.0146V37.4375H193.795V41.0146L197.091 37.4375H200.026L195.764 42.0957L200.079 47H196.897L194.05 43.625L193.795 43.9238V47H191.396V43.9238ZM202.338 47H201.063V37.4375H203.401V43.0537L208.297 37.4375H209.448V47H207.11V41.498L202.338 47ZM211.03 37.4375H219.942V39.7227H216.77V47H214.361V39.7227H211.03V37.4375ZM222.781 47H221.507V37.4375H223.845V43.0537L228.74 37.4375H229.892V47H227.554V41.498L222.781 47ZM237.626 34.0713H240.236C241.648 34.0713 242.665 34.2031 243.286 34.4668C243.913 34.7246 244.405 35.1465 244.763 35.7324C245.126 36.3125 245.308 37.0098 245.308 37.8242C245.308 38.7266 245.07 39.4766 244.596 40.0742C244.127 40.6719 243.488 41.0879 242.68 41.3223C242.205 41.457 241.341 41.5244 240.087 41.5244V47H237.626V34.0713ZM240.087 39.125H240.869C241.484 39.125 241.912 39.0811 242.152 38.9932C242.393 38.9053 242.58 38.7617 242.715 38.5625C242.855 38.3574 242.926 38.1113 242.926 37.8242C242.926 37.3262 242.732 36.9629 242.346 36.7344C242.064 36.5645 241.543 36.4795 240.781 36.4795H240.087V39.125ZM247.733 34.0713H250.651C252.532 34.0713 253.93 34.3057 254.844 34.7744C255.758 35.2373 256.511 35.9932 257.103 37.042C257.694 38.0908 257.99 39.3154 257.99 40.7158C257.99 41.7119 257.823 42.6289 257.489 43.4668C257.161 44.2988 256.704 44.9902 256.118 45.541C255.538 46.0918 254.908 46.4727 254.229 46.6836C253.549 46.8945 252.371 47 250.695 47H247.733V34.0713ZM250.186 36.4443V44.5918H251.328C252.453 44.5918 253.268 44.4629 253.771 44.2051C254.281 43.9473 254.697 43.5137 255.02 42.9043C255.342 42.2949 255.503 41.5449 255.503 40.6543C255.503 39.2832 255.119 38.2197 254.352 37.4639C253.66 36.7842 252.55 36.4443 251.021 36.4443H250.186ZM260.363 34.0713H266.779V36.4707H262.798V38.8174H266.779V41.1816H262.798V47H260.363V34.0713Z" fill="white"/>
<path fill-rule="evenodd" clip-rule="evenodd" d="M40 80C62.0914 80 80 62.0914 80 40C80 17.9086 62.0914 0 40 0C17.9086 0 0 17.9086 0 40C0 62.0914 17.9086 80 40 80Z" fill="white"/>
<path d="M24.7611 44.7769C23.7463 43.7582 23.7463 42.1186 24.7611 41.0998C25.2686 40.5904 25.9267 40.3357 26.5927 40.3357C27.2587 40.3357 27.9167 40.5904 28.4242 41.0998L37.4153 50.1255V22.6027C37.4153 21.17 38.5728 20 40.0079 20C41.4351 20 42.6006 21.162 42.6006 22.6027V50.1255L51.5758 41.0998C52.5907 40.081 54.224 40.081 55.2388 41.0998C56.2537 42.1186 56.2537 43.7582 55.2388 44.7769L41.8315 58.2359C41.3479 58.7214 40.6898 59 40 59C39.3102 59 38.6521 58.7294 38.1685 58.2359L24.7611 44.7769Z" fill="black"/>
</g>
<defs>
<clipPath id="clip0_2_352">
<rect width="293" height="80" fill="white"/>
</clipPath>
</defs>
</svg>
